# Blender v2.77 (sub 0) OBJ File: 'untitled.blend'
# www.blender.org
mtllib untitled.mtl
o Cube
v 1.000000 -1.000000 -1.000000
v 1.014155 -1.020073 1.011369
v -1.014155 -1.020073 1.011368
v -1.000000 -1.000000 -1.000000
v 1.030167 1.021318 -1.012402
v 1.309514 1.156108 1.256996
v -1.309516 1.156109 1.256995
v -1.030166 1.021318 -1.012403
v 1.006080 -1.006080 0.006080
v 0.000000 -1.000000 -1.000000
v 1.010680 0.009516 -1.009765
v 0.000000 -1.014184 1.011963
v 1.145589 0.079417 1.101911
v -1.006080 -1.006080 0.006080
v -1.145589 0.079417 1.101911
v -1.010679 0.009516 -1.009766
v 1.091800 1.041248 0.151001
v 0.000000 1.020280 -1.015535
v -0.000001 1.193605 1.187008
v -1.091800 1.041248 0.151000
v 0.000000 0.009516 -1.009766
v -1.092471 0.050176 0.044847
v -0.000000 0.049889 1.109569
v 1.092471 0.050176 0.044848
v -0.000000 1.120752 0.095284
v 0.000000 -1.006080 0.006080
v 1.009432 -1.010357 0.508997
v -0.500000 -1.000000 -1.000000
v 1.017134 0.514597 -1.013809
v -0.508678 -1.022461 1.011129
v 1.222943 0.570033 1.234924
v -1.003040 -1.003040 -0.496960
v -1.222944 0.570033 1.234923
v -1.017133 0.514596 -1.013809
v 1.263202 1.070881 0.734698
v -0.520907 1.021952 -1.011608
v -0.653416 1.184568 1.206645
v -1.011684 1.017008 -0.423413
v 1.003040 -1.003040 -0.496960
v 0.500000 -1.000000 -1.000000
v 1.005340 -0.495242 -1.004883
v 0.508677 -1.022461 1.011130
v 1.095509 -0.468868 1.055184
v -1.009432 -1.010357 0.508996
v -1.095509 -0.468868 1.055183
v -1.005340 -0.495242 -1.004883
v 1.011684 1.017008 -0.423413
v 0.520908 1.021952 -1.011607
v 0.653415 1.184568 1.206645
v -1.263203 1.070881 0.734697
v -0.505340 0.009516 -1.009766
v 0.505340 0.009516 -1.009766
v 0.000000 0.514309 -1.014526
v 0.000000 -0.495242 -1.004883
v -1.051572 0.029846 -0.482461
v -1.149438 0.071640 0.582213
v -1.049273 -0.477953 0.025462
v -1.123003 0.577450 0.077698
v -0.597051 0.064543 1.114395
v 0.597050 0.064543 1.114396
v -0.000000 -0.481617 1.062476
v -0.000001 0.620378 1.148894
v 1.149437 0.071640 0.582213
v 1.051573 0.029846 -0.482460
v 1.049273 -0.477953 0.025463
v 1.123003 0.577450 0.077699
v -0.000000 1.154042 0.634992
v 0.000000 1.077123 -0.432822
v 0.576530 1.116192 0.109083
v -0.576530 1.116192 0.109083
v -0.503040 -1.006080 0.006080
v 0.503040 -1.006080 0.006080
v 0.000000 -1.003040 -0.496960
v 0.000000 -1.009129 0.509120
v 0.505112 -1.011309 0.508901
v 0.501520 -1.003040 -0.496960
v -0.501520 -1.003040 -0.496960
v -0.541629 1.083309 -0.435897
v 0.541630 1.083309 -0.435897
v 0.643911 1.143569 0.656953
v 1.065996 0.543162 -0.470625
v 1.027306 -0.486597 -0.489710
v 1.071783 -0.470477 0.540967
v 0.605893 0.611785 1.185243
v 0.550133 -0.485224 1.055223
v -0.550134 -0.485224 1.055223
v -1.195548 0.545132 0.680496
v -1.071783 -0.470477 0.540967
v -1.027306 -0.486597 -0.489710
v 0.502670 -0.495242 -1.004883
v 0.508919 0.514525 -1.013979
v -0.508919 0.514525 -1.013979
v -0.502670 -0.495242 -1.004883
v -1.065996 0.543162 -0.470626
v -0.605894 0.611785 1.185243
v 1.195548 0.545131 0.680496
v -0.643912 1.143569 0.656953
v -0.505112 -1.011309 0.508901
vt 0.3695 0.7629
vt 0.2847 0.7635
vt 0.2847 0.8488
vt 0.3695 0.8480
vt 0.4685 0.1153
vt 0.4790 0.0105
vt 0.5669 0.0004
vt 0.5612 0.1113
vt 0.1024 0.4310
vt 0.0138 0.4208
vt 0.0004 0.3325
vt 0.0993 0.3374
vt 0.0986 0.1192
vt 0.0019 0.1111
vt 0.0067 0.0004
vt 0.1056 0.0150
vt 0.6535 0.2052
vt 0.5736 0.1960
vt 0.5713 0.2954
vt 0.6568 0.2970
vt 0.4547 0.5041
vt 0.3695 0.5037
vt 0.3695 0.5881
vt 0.4547 0.5890
vt 0.6251 0.5052
vt 0.5399 0.5046
vt 0.5399 0.5899
vt 0.6251 0.5910
vt 0.6251 0.3334
vt 0.5399 0.3340
vt 0.5399 0.4193
vt 0.6251 0.4193
vt 0.4547 0.3344
vt 0.3695 0.3349
vt 0.3695 0.4193
vt 0.4547 0.4193
vt 0.8272 0.2113
vt 0.7401 0.2086
vt 0.7421 0.2977
vt 0.8273 0.2982
vt 0.8273 0.0373
vt 0.7359 0.0288
vt 0.7381 0.1196
vt 0.8272 0.1243
vt 0.6563 0.0110
vt 0.5677 0.0004
vt 0.5711 0.0990
vt 0.6492 0.1126
vt 0.2838 0.1286
vt 0.1910 0.1207
vt 0.1885 0.0281
vt 0.2810 0.0365
vt 0.2838 0.3143
vt 0.1910 0.3222
vt 0.1934 0.2214
vt 0.2832 0.2214
vt 0.0986 0.3237
vt 0.0019 0.3317
vt 0.0004 0.2214
vt 0.0972 0.2214
vt 0.2736 0.4565
vt 0.1821 0.4485
vt 0.1818 0.3608
vt 0.2743 0.3697
vt 0.2743 0.6305
vt 0.1871 0.6283
vt 0.1847 0.5393
vt 0.2738 0.5435
vt 0.1005 0.6253
vt 0.0206 0.6164
vt 0.0176 0.5194
vt 0.0958 0.5327
vt 0.4741 0.3326
vt 0.4676 0.2241
vt 0.5608 0.2217
vt 0.5669 0.3318
vt 0.2892 0.3201
vt 0.2874 0.2287
vt 0.3765 0.2264
vt 0.3814 0.3236
vt 0.2846 0.1373
vt 0.2846 0.0579
vt 0.3812 0.0419
vt 0.3764 0.1290
vt 0.5393 0.7623
vt 0.4543 0.7626
vt 0.4543 0.8475
vt 0.5393 0.8470
vt 0.5393 0.5930
vt 0.4543 0.5927
vt 0.4543 0.6776
vt 0.5393 0.6776
vt 0.3695 0.5924
vt 0.2847 0.5918
vt 0.2846 0.6776
vt 0.3694 0.6776
vt 0.8280 0.7775
vt 0.8280 0.8624
vt 0.9132 0.8618
vt 0.9129 0.7769
vt 0.8279 0.9472
vt 0.9132 0.9465
vt 0.2846 0.3346
vt 0.2846 0.4193
vt 0.9128 0.0859
vt 0.9139 0.0010
vt 0.8292 0.0004
vt 0.8284 0.0853
vt 0.8279 0.6926
vt 0.9126 0.6920
vt 0.2846 0.5039
vt 0.2846 0.5886
vt 0.5409 0.8659
vt 0.5409 0.7779
vt 0.6380 0.7737
vt 0.6393 0.8651
vt 0.5400 0.6920
vt 0.6395 0.6943
vt 0.0307 0.6389
vt 0.1097 0.6313
vt 0.1103 0.7235
vt 0.0240 0.7366
vt 0.9233 0.3786
vt 0.9233 0.4645
vt 0.8262 0.4612
vt 0.8239 0.3818
vt 0.5423 0.9538
vt 0.6395 0.9565
vt 0.0020 0.8369
vt 0.1054 0.8165
vt 0.1103 0.9092
vt 0.0004 0.9254
vt 0.7104 0.5935
vt 0.7957 0.5922
vt 0.8012 0.6838
vt 0.7145 0.6825
vt 0.8812 0.5918
vt 0.8812 0.6912
vt 0.8271 0.9529
vt 0.7399 0.9527
vt 0.7374 0.8658
vt 0.8266 0.8680
vt 0.5400 0.5964
vt 0.6252 0.5949
vt 0.6273 0.6819
vt 0.5402 0.6813
vt 0.8264 0.7831
vt 0.7352 0.7788
vt 0.7339 0.6920
vt 0.8271 0.6983
vt 0.6385 0.4877
vt 0.6323 0.4041
vt 0.7367 0.4057
vt 0.7305 0.4979
vt 0.6259 0.3043
vt 0.7367 0.3087
vt 0.6424 0.6981
vt 0.7332 0.6920
vt 0.7329 0.7848
vt 0.6430 0.7839
vt 0.8305 0.5591
vt 0.8239 0.4653
vt 0.9155 0.4752
vt 0.9155 0.5661
vt 0.6392 0.5806
vt 0.7307 0.5910
vt 0.6407 0.8698
vt 0.7313 0.8777
vt 0.7332 0.9698
vt 0.6403 0.9551
vt 0.1208 0.7373
vt 0.1111 0.8226
vt 0.2029 0.8043
vt 0.2073 0.7228
vt 0.1223 0.9210
vt 0.2073 0.8934
vt 0.2846 0.8496
vt 0.2783 0.9407
vt 0.3653 0.9403
vt 0.3695 0.8512
vt 0.8839 0.5951
vt 0.8820 0.6885
vt 0.9686 0.6831
vt 0.9686 0.5918
vt 0.1146 0.6447
vt 0.2004 0.6313
vt 0.4544 0.8525
vt 0.4523 0.9396
vt 0.5393 0.9390
vt 0.5393 0.8538
vt 0.9134 0.2563
vt 0.9131 0.1711
vt 0.8282 0.1705
vt 0.8281 0.2557
vt 0.8232 0.3043
vt 0.7375 0.3063
vt 0.7375 0.3922
vt 0.8229 0.3922
vt 0.9996 0.6920
vt 0.9141 0.6941
vt 0.9140 0.7799
vt 0.9996 0.7779
vt 0.9139 0.3416
vt 0.8281 0.3410
vt 0.8232 0.4801
vt 0.7375 0.4781
vt 0.7375 0.5639
vt 0.8230 0.5661
vn -0.0033 -0.9998 -0.0208
vn -0.0906 0.9885 -0.1211
vn 0.9896 -0.1336 -0.0541
vn 0.0798 -0.0281 0.9964
vn -0.9987 0.0434 -0.0277
vn 0.0000 -0.0097 -1.0000
vn -0.0002 -0.0082 -1.0000
vn 0.0005 -0.0089 -1.0000
vn -0.9978 -0.0288 -0.0594
vn -0.9916 -0.1079 -0.0719
vn -0.9795 -0.0101 -0.2014
vn -0.0142 -0.0972 0.9952
vn 0.0030 -0.0979 0.9952
vn -0.0451 -0.0499 0.9977
vn 0.9932 -0.1149 -0.0181
vn 0.9963 -0.0629 -0.0583
vn 0.9863 0.1062 -0.1260
vn 0.0173 0.9972 -0.0731
vn -0.0008 0.9975 -0.0711
vn -0.1451 0.9873 -0.0653
vn 0.0000 -1.0000 -0.0060
vn -0.0103 -0.9998 -0.0161
vn -0.0022 -1.0000 -0.0082
vn 0.0009 -1.0000 -0.0095
vn 0.0033 -0.9998 -0.0208
vn 0.0008 0.9975 -0.0711
vn 0.0073 0.9948 -0.1014
vn -0.0687 0.9964 -0.0489
vn 0.1451 0.9873 -0.0653
vn 0.0687 0.9964 -0.0489
vn -0.0073 0.9948 -0.1014
vn 0.0906 0.9885 -0.1211
vn 0.1368 0.9875 -0.0786
vn 0.0140 0.9983 -0.0566
vn 0.9953 -0.0392 -0.0886
vn 0.9964 -0.0198 -0.0826
vn 0.9987 0.0434 -0.0277
vn 0.9977 -0.0638 -0.0242
vn 0.9993 -0.0289 -0.0244
vn 0.9978 -0.0288 -0.0594
vn 0.9913 -0.1286 -0.0288
vn 0.9950 -0.0971 -0.0250
vn 0.9916 -0.1079 -0.0719
vn -0.0336 -0.0978 0.9946
vn -0.0357 -0.1898 0.9812
vn -0.0798 -0.0281 0.9964
vn 0.0066 -0.0883 0.9961
vn 0.0012 -0.0806 0.9967
vn 0.0142 -0.0972 0.9952
vn -0.0012 -0.0806 0.9967
vn -0.0066 -0.0883 0.9961
vn -0.0030 -0.0979 0.9952
vn -0.9917 -0.0611 -0.1132
vn -0.9923 -0.1227 -0.0180
vn -0.9896 -0.1336 -0.0541
vn -0.9950 -0.0971 -0.0250
vn -0.9913 -0.1286 -0.0288
vn -0.9932 -0.1149 -0.0181
vn -0.9993 -0.0289 -0.0244
vn -0.9977 -0.0638 -0.0242
vn -0.9963 -0.0629 -0.0583
vn 0.0043 0.0013 -1.0000
vn -0.0006 0.0037 -1.0000
vn 0.0002 -0.0082 -1.0000
vn 0.0006 0.0037 -1.0000
vn -0.0043 0.0013 -1.0000
vn -0.0005 -0.0089 -1.0000
vn -0.9964 -0.0198 -0.0826
vn -0.9953 -0.0392 -0.0886
vn -0.9863 0.1062 -0.1260
vn 0.0357 -0.1898 0.9812
vn 0.0336 -0.0978 0.9946
vn 0.0451 -0.0499 0.9977
vn 0.9923 -0.1227 -0.0180
vn 0.9917 -0.0611 -0.1132
vn 0.9795 -0.0101 -0.2014
vn -0.0173 0.9972 -0.0731
vn -0.0140 0.9983 -0.0566
vn -0.1368 0.9875 -0.0786
vn -0.0009 -1.0000 -0.0095
vn 0.0022 -1.0000 -0.0082
vn 0.0103 -0.9998 -0.0161
usemtl Material
s off
f 98/1/1 30/2/1 3/3/1 44/4/1
f 97/5/2 50/6/2 7/7/2 37/8/2
f 96/9/3 35/10/3 6/11/3 31/12/3
f 95/13/4 37/14/4 7/15/4 33/16/4
f 94/17/5 38/18/5 8/19/5 34/20/5
f 93/21/6 28/22/6 4/23/6 46/24/6
f 92/25/7 51/26/7 16/27/7 34/28/7
f 91/29/8 52/30/8 21/31/8 53/32/8
f 90/33/6 40/34/6 10/35/6 54/36/6
f 89/37/9 55/38/9 16/39/9 46/40/9
f 88/41/10 56/42/10 22/43/10 57/44/10
f 87/45/11 50/46/11 20/47/11 58/48/11
f 86/49/12 59/50/12 15/51/12 45/52/12
f 85/53/13 60/54/13 23/55/13 61/56/13
f 84/57/14 49/58/14 19/59/14 62/60/14
f 83/61/15 63/62/15 13/63/15 43/64/15
f 82/65/16 64/66/16 24/67/16 65/68/16
f 81/69/17 47/70/17 17/71/17 66/72/17
f 80/73/18 67/74/18 19/75/18 49/76/18
f 79/77/19 68/78/19 25/79/19 69/80/19
f 78/81/20 38/82/20 20/83/20 70/84/20
f 77/85/21 71/86/21 14/87/21 32/88/21
f 76/89/21 72/90/21 26/91/21 73/92/21
f 75/93/22 42/94/22 12/95/22 74/96/22
f 72/90/23 75/93/23 74/96/23 26/91/23
f 9/97/24 27/98/24 75/99/24 72/100/24
f 27/98/25 2/101/25 42/102/25 75/99/25
f 40/34/21 76/103/21 73/104/21 10/35/21
f 1/105/21 39/106/21 76/107/21 40/108/21
f 39/109/21 9/97/21 72/100/21 76/110/21
f 28/22/21 77/111/21 32/112/21 4/23/21
f 10/35/21 73/104/21 77/111/21 28/22/21
f 73/92/21 26/91/21 71/86/21 77/85/21
f 68/78/26 78/81/26 70/84/26 25/79/26
f 18/113/27 36/114/27 78/115/27 68/116/27
f 36/114/28 8/117/28 38/118/28 78/115/28
f 47/119/29 79/120/29 69/121/29 17/122/29
f 5/123/30 48/124/30 79/125/30 47/126/30
f 48/127/31 18/113/31 68/116/31 79/128/31
f 35/129/32 80/130/32 49/131/32 6/132/32
f 17/122/33 69/121/33 80/130/33 35/129/33
f 69/80/34 25/79/34 67/74/34 80/73/34
f 64/66/35 81/69/35 66/72/35 24/67/35
f 11/133/36 29/134/36 81/135/36 64/136/36
f 29/134/37 5/137/37 47/138/37 81/135/37
f 39/139/38 82/140/38 65/141/38 9/142/38
f 1/143/39 41/144/39 82/145/39 39/146/39
f 41/144/40 11/133/40 64/136/40 82/145/40
f 27/147/41 83/148/41 43/149/41 2/150/41
f 9/142/42 65/141/42 83/148/42 27/147/42
f 65/68/43 24/67/43 63/62/43 83/61/43
f 60/54/44 84/57/44 62/60/44 23/55/44
f 13/151/45 31/152/45 84/153/45 60/154/45
f 31/152/46 6/155/46 49/156/46 84/153/46
f 42/157/47 85/158/47 61/159/47 12/160/47
f 2/161/48 43/162/48 85/163/48 42/164/48
f 43/165/49 13/151/49 60/154/49 85/166/49
f 30/167/50 86/168/50 45/169/50 3/170/50
f 12/160/51 61/159/51 86/168/51 30/167/51
f 61/56/52 23/55/52 59/50/52 86/49/52
f 56/42/53 87/45/53 58/48/53 22/43/53
f 15/171/54 33/172/54 87/173/54 56/174/54
f 33/172/55 7/175/55 50/176/55 87/173/55
f 44/177/56 88/178/56 57/179/56 14/180/56
f 3/181/57 45/182/57 88/183/57 44/184/57
f 45/185/58 15/171/58 56/174/58 88/186/58
f 32/187/59 89/188/59 46/189/59 4/190/59
f 14/180/60 57/179/60 89/188/60 32/187/60
f 57/44/61 22/43/61 55/38/61 89/37/61
f 52/30/6 90/33/6 54/36/6 21/31/6
f 11/191/6 41/192/6 90/193/6 52/194/6
f 41/192/6 1/105/6 40/108/6 90/193/6
f 48/195/62 91/196/62 53/197/62 18/198/62
f 5/199/63 29/200/63 91/201/63 48/202/63
f 29/203/64 11/191/64 52/194/64 91/204/64
f 36/205/65 92/206/65 34/207/65 8/208/65
f 18/198/66 53/197/66 92/206/66 36/205/66
f 53/32/67 21/31/67 51/26/67 92/25/67
f 51/26/6 93/21/6 46/24/6 16/27/6
f 21/31/6 54/36/6 93/21/6 51/26/6
f 54/36/6 10/35/6 28/22/6 93/21/6
f 55/38/68 94/17/68 34/20/68 16/39/68
f 22/43/69 58/48/69 94/17/69 55/38/69
f 58/48/70 20/47/70 38/18/70 94/17/70
f 59/50/71 95/13/71 33/16/71 15/51/71
f 23/55/72 62/60/72 95/13/72 59/50/72
f 62/60/73 19/59/73 37/14/73 95/13/73
f 63/62/74 96/9/74 31/12/74 13/63/74
f 24/67/75 66/72/75 96/9/75 63/62/75
f 66/72/76 17/71/76 35/10/76 96/9/76
f 67/74/77 97/5/77 37/8/77 19/75/77
f 25/79/78 70/84/78 97/5/78 67/74/78
f 70/84/79 20/83/79 50/6/79 97/5/79
f 71/86/80 98/1/80 44/4/80 14/87/80
f 26/91/81 74/96/81 98/1/81 71/86/81
f 74/96/82 12/95/82 30/2/82 98/1/82
